<svg width="155" height="43" viewBox="0 0 155 43" fill="none" xmlns="http://www.w3.org/2000/svg">
<path d="M81.39 13.8H84.146L85.42 27.788H85.472L86.824 13.8H89.944L91.296 27.788H91.348L92.622 13.8H95.092L93.246 32H89.684L88.384 19.728H88.332L87.032 32H83.236L81.39 13.8ZM97.3187 13.8H105.119V16.4H100.179V21.21H104.105V23.81H100.179V29.4H105.119V32H97.3187V13.8ZM107.544 13.8H111.86C113.333 13.8 114.408 14.1467 115.084 14.84C115.76 15.516 116.098 16.5647 116.098 17.986V18.714C116.098 19.65 115.942 20.4127 115.63 21.002C115.335 21.5913 114.876 22.016 114.252 22.276V22.328C115.673 22.8133 116.384 24.0787 116.384 26.124V27.684C116.384 29.088 116.011 30.1627 115.266 30.908C114.538 31.636 113.463 32 112.042 32H107.544V13.8ZM111.522 21.21C112.094 21.21 112.519 21.0627 112.796 20.768C113.091 20.4733 113.238 19.9793 113.238 19.286V18.272C113.238 17.6133 113.117 17.1367 112.874 16.842C112.649 16.5473 112.285 16.4 111.782 16.4H110.404V21.21H111.522ZM112.042 29.4C112.545 29.4 112.917 29.27 113.16 29.01C113.403 28.7327 113.524 28.2647 113.524 27.606V26.02C113.524 25.188 113.377 24.616 113.082 24.304C112.805 23.9747 112.337 23.81 111.678 23.81H110.404V29.4H112.042ZM118.836 13.8H121.696V29.4H126.402V32H118.836V13.8ZM128.553 13.8H131.413V32H128.553V13.8ZM134.335 13.8H137.923L140.705 24.694H140.757V13.8H143.305V32H140.367L136.935 18.714H136.883V32H134.335V13.8ZM146.211 13.8H154.011V16.4H149.071V21.21H152.997V23.81H149.071V29.4H154.011V32H146.211V13.8Z" fill="black"/>
<path d="M28 43L52.2487 1H3.75129L28 43Z" fill="#5DC226"/>
<path d="M52.5854 43L76.8342 1H28.3367L52.5854 43Z" fill="#71D63A"/>
<path d="M63.9499 23.3125L76.8328 0.99861H51.067L63.9499 23.3125Z" fill="#5DC226"/>
</svg>
